<?xml version="1.0" encoding="utf-8" standalone="no"?>
<!DOCTYPE svg PUBLIC "-//W3C//DTD SVG 1.1//EN"
  "http://www.w3.org/Graphics/SVG/1.1/DTD/svg11.dtd">
<!-- Created with matplotlib (https://matplotlib.org/) -->
<svg height="288pt" version="1.1" viewBox="0 0 432 288" width="432pt" xmlns="http://www.w3.org/2000/svg" xmlns:xlink="http://www.w3.org/1999/xlink">
 <defs>
  <style type="text/css">
*{stroke-linecap:butt;stroke-linejoin:round;}
  </style>
 </defs>
 <g id="figure_1">
  <g id="patch_1">
   <path d="M 0 288 
L 432 288 
L 432 0 
L 0 0 
z
" style="fill:#ffffff;"/>
  </g>
  <g id="axes_1">
   <g id="patch_2">
    <path d="M 54 252 
L 388.8 252 
L 388.8 34.56 
L 54 34.56 
z
" style="fill:#eaeaf2;"/>
   </g>
   <g id="matplotlib.axis_1">
    <g id="xtick_1">
     <g id="line2d_1">
      <path clip-path="url(#p9291ca3df0)" d="M 69.218182 252 
L 69.218182 34.56 
" style="fill:none;stroke:#ffffff;stroke-linecap:round;"/>
     </g>
     <g id="text_1">
      <!-- 0 -->
      <defs>
       <path d="M 31.78125 66.40625 
Q 24.171875 66.40625 20.328125 58.90625 
Q 16.5 51.421875 16.5 36.375 
Q 16.5 21.390625 20.328125 13.890625 
Q 24.171875 6.390625 31.78125 6.390625 
Q 39.453125 6.390625 43.28125 13.890625 
Q 47.125 21.390625 47.125 36.375 
Q 47.125 51.421875 43.28125 58.90625 
Q 39.453125 66.40625 31.78125 66.40625 
z
M 31.78125 74.21875 
Q 44.046875 74.21875 50.515625 64.515625 
Q 56.984375 54.828125 56.984375 36.375 
Q 56.984375 17.96875 50.515625 8.265625 
Q 44.046875 -1.421875 31.78125 -1.421875 
Q 19.53125 -1.421875 13.0625 8.265625 
Q 6.59375 17.96875 6.59375 36.375 
Q 6.59375 54.828125 13.0625 64.515625 
Q 19.53125 74.21875 31.78125 74.21875 
z
" id="DejaVuSans-48"/>
      </defs>
      <g style="fill:#262626;" transform="translate(65.718807 269.858281)scale(0.11 -0.11)">
       <use xlink:href="#DejaVuSans-48"/>
      </g>
     </g>
    </g>
    <g id="xtick_2">
     <g id="line2d_2">
      <path clip-path="url(#p9291ca3df0)" d="M 119.818953 252 
L 119.818953 34.56 
" style="fill:none;stroke:#ffffff;stroke-linecap:round;"/>
     </g>
     <g id="text_2">
      <!-- 200 -->
      <defs>
       <path d="M 19.1875 8.296875 
L 53.609375 8.296875 
L 53.609375 0 
L 7.328125 0 
L 7.328125 8.296875 
Q 12.9375 14.109375 22.625 23.890625 
Q 32.328125 33.6875 34.8125 36.53125 
Q 39.546875 41.84375 41.421875 45.53125 
Q 43.3125 49.21875 43.3125 52.78125 
Q 43.3125 58.59375 39.234375 62.25 
Q 35.15625 65.921875 28.609375 65.921875 
Q 23.96875 65.921875 18.8125 64.3125 
Q 13.671875 62.703125 7.8125 59.421875 
L 7.8125 69.390625 
Q 13.765625 71.78125 18.9375 73 
Q 24.125 74.21875 28.421875 74.21875 
Q 39.75 74.21875 46.484375 68.546875 
Q 53.21875 62.890625 53.21875 53.421875 
Q 53.21875 48.921875 51.53125 44.890625 
Q 49.859375 40.875 45.40625 35.40625 
Q 44.1875 33.984375 37.640625 27.21875 
Q 31.109375 20.453125 19.1875 8.296875 
z
" id="DejaVuSans-50"/>
      </defs>
      <g style="fill:#262626;" transform="translate(109.320828 269.858281)scale(0.11 -0.11)">
       <use xlink:href="#DejaVuSans-50"/>
       <use x="63.623047" xlink:href="#DejaVuSans-48"/>
       <use x="127.246094" xlink:href="#DejaVuSans-48"/>
      </g>
     </g>
    </g>
    <g id="xtick_3">
     <g id="line2d_3">
      <path clip-path="url(#p9291ca3df0)" d="M 170.419723 252 
L 170.419723 34.56 
" style="fill:none;stroke:#ffffff;stroke-linecap:round;"/>
     </g>
     <g id="text_3">
      <!-- 400 -->
      <defs>
       <path d="M 37.796875 64.3125 
L 12.890625 25.390625 
L 37.796875 25.390625 
z
M 35.203125 72.90625 
L 47.609375 72.90625 
L 47.609375 25.390625 
L 58.015625 25.390625 
L 58.015625 17.1875 
L 47.609375 17.1875 
L 47.609375 0 
L 37.796875 0 
L 37.796875 17.1875 
L 4.890625 17.1875 
L 4.890625 26.703125 
z
" id="DejaVuSans-52"/>
      </defs>
      <g style="fill:#262626;" transform="translate(159.921598 269.858281)scale(0.11 -0.11)">
       <use xlink:href="#DejaVuSans-52"/>
       <use x="63.623047" xlink:href="#DejaVuSans-48"/>
       <use x="127.246094" xlink:href="#DejaVuSans-48"/>
      </g>
     </g>
    </g>
    <g id="xtick_4">
     <g id="line2d_4">
      <path clip-path="url(#p9291ca3df0)" d="M 221.020494 252 
L 221.020494 34.56 
" style="fill:none;stroke:#ffffff;stroke-linecap:round;"/>
     </g>
     <g id="text_4">
      <!-- 600 -->
      <defs>
       <path d="M 33.015625 40.375 
Q 26.375 40.375 22.484375 35.828125 
Q 18.609375 31.296875 18.609375 23.390625 
Q 18.609375 15.53125 22.484375 10.953125 
Q 26.375 6.390625 33.015625 6.390625 
Q 39.65625 6.390625 43.53125 10.953125 
Q 47.40625 15.53125 47.40625 23.390625 
Q 47.40625 31.296875 43.53125 35.828125 
Q 39.65625 40.375 33.015625 40.375 
z
M 52.59375 71.296875 
L 52.59375 62.3125 
Q 48.875 64.0625 45.09375 64.984375 
Q 41.3125 65.921875 37.59375 65.921875 
Q 27.828125 65.921875 22.671875 59.328125 
Q 17.53125 52.734375 16.796875 39.40625 
Q 19.671875 43.65625 24.015625 45.921875 
Q 28.375 48.1875 33.59375 48.1875 
Q 44.578125 48.1875 50.953125 41.515625 
Q 57.328125 34.859375 57.328125 23.390625 
Q 57.328125 12.15625 50.6875 5.359375 
Q 44.046875 -1.421875 33.015625 -1.421875 
Q 20.359375 -1.421875 13.671875 8.265625 
Q 6.984375 17.96875 6.984375 36.375 
Q 6.984375 53.65625 15.1875 63.9375 
Q 23.390625 74.21875 37.203125 74.21875 
Q 40.921875 74.21875 44.703125 73.484375 
Q 48.484375 72.75 52.59375 71.296875 
z
" id="DejaVuSans-54"/>
      </defs>
      <g style="fill:#262626;" transform="translate(210.522369 269.858281)scale(0.11 -0.11)">
       <use xlink:href="#DejaVuSans-54"/>
       <use x="63.623047" xlink:href="#DejaVuSans-48"/>
       <use x="127.246094" xlink:href="#DejaVuSans-48"/>
      </g>
     </g>
    </g>
    <g id="xtick_5">
     <g id="line2d_5">
      <path clip-path="url(#p9291ca3df0)" d="M 271.621265 252 
L 271.621265 34.56 
" style="fill:none;stroke:#ffffff;stroke-linecap:round;"/>
     </g>
     <g id="text_5">
      <!-- 800 -->
      <defs>
       <path d="M 31.78125 34.625 
Q 24.75 34.625 20.71875 30.859375 
Q 16.703125 27.09375 16.703125 20.515625 
Q 16.703125 13.921875 20.71875 10.15625 
Q 24.75 6.390625 31.78125 6.390625 
Q 38.8125 6.390625 42.859375 10.171875 
Q 46.921875 13.96875 46.921875 20.515625 
Q 46.921875 27.09375 42.890625 30.859375 
Q 38.875 34.625 31.78125 34.625 
z
M 21.921875 38.8125 
Q 15.578125 40.375 12.03125 44.71875 
Q 8.5 49.078125 8.5 55.328125 
Q 8.5 64.0625 14.71875 69.140625 
Q 20.953125 74.21875 31.78125 74.21875 
Q 42.671875 74.21875 48.875 69.140625 
Q 55.078125 64.0625 55.078125 55.328125 
Q 55.078125 49.078125 51.53125 44.71875 
Q 48 40.375 41.703125 38.8125 
Q 48.828125 37.15625 52.796875 32.3125 
Q 56.78125 27.484375 56.78125 20.515625 
Q 56.78125 9.90625 50.3125 4.234375 
Q 43.84375 -1.421875 31.78125 -1.421875 
Q 19.734375 -1.421875 13.25 4.234375 
Q 6.78125 9.90625 6.78125 20.515625 
Q 6.78125 27.484375 10.78125 32.3125 
Q 14.796875 37.15625 21.921875 38.8125 
z
M 18.3125 54.390625 
Q 18.3125 48.734375 21.84375 45.5625 
Q 25.390625 42.390625 31.78125 42.390625 
Q 38.140625 42.390625 41.71875 45.5625 
Q 45.3125 48.734375 45.3125 54.390625 
Q 45.3125 60.0625 41.71875 63.234375 
Q 38.140625 66.40625 31.78125 66.40625 
Q 25.390625 66.40625 21.84375 63.234375 
Q 18.3125 60.0625 18.3125 54.390625 
z
" id="DejaVuSans-56"/>
      </defs>
      <g style="fill:#262626;" transform="translate(261.12314 269.858281)scale(0.11 -0.11)">
       <use xlink:href="#DejaVuSans-56"/>
       <use x="63.623047" xlink:href="#DejaVuSans-48"/>
       <use x="127.246094" xlink:href="#DejaVuSans-48"/>
      </g>
     </g>
    </g>
    <g id="xtick_6">
     <g id="line2d_6">
      <path clip-path="url(#p9291ca3df0)" d="M 322.222036 252 
L 322.222036 34.56 
" style="fill:none;stroke:#ffffff;stroke-linecap:round;"/>
     </g>
     <g id="text_6">
      <!-- 1000 -->
      <defs>
       <path d="M 12.40625 8.296875 
L 28.515625 8.296875 
L 28.515625 63.921875 
L 10.984375 60.40625 
L 10.984375 69.390625 
L 28.421875 72.90625 
L 38.28125 72.90625 
L 38.28125 8.296875 
L 54.390625 8.296875 
L 54.390625 0 
L 12.40625 0 
z
" id="DejaVuSans-49"/>
      </defs>
      <g style="fill:#262626;" transform="translate(308.224536 269.858281)scale(0.11 -0.11)">
       <use xlink:href="#DejaVuSans-49"/>
       <use x="63.623047" xlink:href="#DejaVuSans-48"/>
       <use x="127.246094" xlink:href="#DejaVuSans-48"/>
       <use x="190.869141" xlink:href="#DejaVuSans-48"/>
      </g>
     </g>
    </g>
    <g id="xtick_7">
     <g id="line2d_7">
      <path clip-path="url(#p9291ca3df0)" d="M 372.822807 252 
L 372.822807 34.56 
" style="fill:none;stroke:#ffffff;stroke-linecap:round;"/>
     </g>
     <g id="text_7">
      <!-- 1200 -->
      <g style="fill:#262626;" transform="translate(358.825307 269.858281)scale(0.11 -0.11)">
       <use xlink:href="#DejaVuSans-49"/>
       <use x="63.623047" xlink:href="#DejaVuSans-50"/>
       <use x="127.246094" xlink:href="#DejaVuSans-48"/>
       <use x="190.869141" xlink:href="#DejaVuSans-48"/>
      </g>
     </g>
    </g>
   </g>
   <g id="matplotlib.axis_2">
    <g id="ytick_1">
     <g id="line2d_8">
      <path clip-path="url(#p9291ca3df0)" d="M 54 250.352727 
L 388.8 250.352727 
" style="fill:none;stroke:#ffffff;stroke-linecap:round;"/>
     </g>
     <g id="text_8">
      <!-- 0 -->
      <g style="fill:#262626;" transform="translate(37.50125 254.531868)scale(0.11 -0.11)">
       <use xlink:href="#DejaVuSans-48"/>
      </g>
     </g>
    </g>
    <g id="ytick_2">
     <g id="line2d_9">
      <path clip-path="url(#p9291ca3df0)" d="M 54 220.937143 
L 388.8 220.937143 
" style="fill:none;stroke:#ffffff;stroke-linecap:round;"/>
     </g>
     <g id="text_9">
      <!-- 100 -->
      <g style="fill:#262626;" transform="translate(23.50375 225.116283)scale(0.11 -0.11)">
       <use xlink:href="#DejaVuSans-49"/>
       <use x="63.623047" xlink:href="#DejaVuSans-48"/>
       <use x="127.246094" xlink:href="#DejaVuSans-48"/>
      </g>
     </g>
    </g>
    <g id="ytick_3">
     <g id="line2d_10">
      <path clip-path="url(#p9291ca3df0)" d="M 54 191.521558 
L 388.8 191.521558 
" style="fill:none;stroke:#ffffff;stroke-linecap:round;"/>
     </g>
     <g id="text_10">
      <!-- 200 -->
      <g style="fill:#262626;" transform="translate(23.50375 195.700699)scale(0.11 -0.11)">
       <use xlink:href="#DejaVuSans-50"/>
       <use x="63.623047" xlink:href="#DejaVuSans-48"/>
       <use x="127.246094" xlink:href="#DejaVuSans-48"/>
      </g>
     </g>
    </g>
    <g id="ytick_4">
     <g id="line2d_11">
      <path clip-path="url(#p9291ca3df0)" d="M 54 162.105974 
L 388.8 162.105974 
" style="fill:none;stroke:#ffffff;stroke-linecap:round;"/>
     </g>
     <g id="text_11">
      <!-- 300 -->
      <defs>
       <path d="M 40.578125 39.3125 
Q 47.65625 37.796875 51.625 33 
Q 55.609375 28.21875 55.609375 21.1875 
Q 55.609375 10.40625 48.1875 4.484375 
Q 40.765625 -1.421875 27.09375 -1.421875 
Q 22.515625 -1.421875 17.65625 -0.515625 
Q 12.796875 0.390625 7.625 2.203125 
L 7.625 11.71875 
Q 11.71875 9.328125 16.59375 8.109375 
Q 21.484375 6.890625 26.8125 6.890625 
Q 36.078125 6.890625 40.9375 10.546875 
Q 45.796875 14.203125 45.796875 21.1875 
Q 45.796875 27.640625 41.28125 31.265625 
Q 36.765625 34.90625 28.71875 34.90625 
L 20.21875 34.90625 
L 20.21875 43.015625 
L 29.109375 43.015625 
Q 36.375 43.015625 40.234375 45.921875 
Q 44.09375 48.828125 44.09375 54.296875 
Q 44.09375 59.90625 40.109375 62.90625 
Q 36.140625 65.921875 28.71875 65.921875 
Q 24.65625 65.921875 20.015625 65.03125 
Q 15.375 64.15625 9.8125 62.3125 
L 9.8125 71.09375 
Q 15.4375 72.65625 20.34375 73.4375 
Q 25.25 74.21875 29.59375 74.21875 
Q 40.828125 74.21875 47.359375 69.109375 
Q 53.90625 64.015625 53.90625 55.328125 
Q 53.90625 49.265625 50.4375 45.09375 
Q 46.96875 40.921875 40.578125 39.3125 
z
" id="DejaVuSans-51"/>
      </defs>
      <g style="fill:#262626;" transform="translate(23.50375 166.285115)scale(0.11 -0.11)">
       <use xlink:href="#DejaVuSans-51"/>
       <use x="63.623047" xlink:href="#DejaVuSans-48"/>
       <use x="127.246094" xlink:href="#DejaVuSans-48"/>
      </g>
     </g>
    </g>
    <g id="ytick_5">
     <g id="line2d_12">
      <path clip-path="url(#p9291ca3df0)" d="M 54 132.69039 
L 388.8 132.69039 
" style="fill:none;stroke:#ffffff;stroke-linecap:round;"/>
     </g>
     <g id="text_12">
      <!-- 400 -->
      <g style="fill:#262626;" transform="translate(23.50375 136.86953)scale(0.11 -0.11)">
       <use xlink:href="#DejaVuSans-52"/>
       <use x="63.623047" xlink:href="#DejaVuSans-48"/>
       <use x="127.246094" xlink:href="#DejaVuSans-48"/>
      </g>
     </g>
    </g>
    <g id="ytick_6">
     <g id="line2d_13">
      <path clip-path="url(#p9291ca3df0)" d="M 54 103.274805 
L 388.8 103.274805 
" style="fill:none;stroke:#ffffff;stroke-linecap:round;"/>
     </g>
     <g id="text_13">
      <!-- 500 -->
      <defs>
       <path d="M 10.796875 72.90625 
L 49.515625 72.90625 
L 49.515625 64.59375 
L 19.828125 64.59375 
L 19.828125 46.734375 
Q 21.96875 47.46875 24.109375 47.828125 
Q 26.265625 48.1875 28.421875 48.1875 
Q 40.625 48.1875 47.75 41.5 
Q 54.890625 34.8125 54.890625 23.390625 
Q 54.890625 11.625 47.5625 5.09375 
Q 40.234375 -1.421875 26.90625 -1.421875 
Q 22.3125 -1.421875 17.546875 -0.640625 
Q 12.796875 0.140625 7.71875 1.703125 
L 7.71875 11.625 
Q 12.109375 9.234375 16.796875 8.0625 
Q 21.484375 6.890625 26.703125 6.890625 
Q 35.15625 6.890625 40.078125 11.328125 
Q 45.015625 15.765625 45.015625 23.390625 
Q 45.015625 31 40.078125 35.4375 
Q 35.15625 39.890625 26.703125 39.890625 
Q 22.75 39.890625 18.8125 39.015625 
Q 14.890625 38.140625 10.796875 36.28125 
z
" id="DejaVuSans-53"/>
      </defs>
      <g style="fill:#262626;" transform="translate(23.50375 107.453946)scale(0.11 -0.11)">
       <use xlink:href="#DejaVuSans-53"/>
       <use x="63.623047" xlink:href="#DejaVuSans-48"/>
       <use x="127.246094" xlink:href="#DejaVuSans-48"/>
      </g>
     </g>
    </g>
    <g id="ytick_7">
     <g id="line2d_14">
      <path clip-path="url(#p9291ca3df0)" d="M 54 73.859221 
L 388.8 73.859221 
" style="fill:none;stroke:#ffffff;stroke-linecap:round;"/>
     </g>
     <g id="text_14">
      <!-- 600 -->
      <g style="fill:#262626;" transform="translate(23.50375 78.038361)scale(0.11 -0.11)">
       <use xlink:href="#DejaVuSans-54"/>
       <use x="63.623047" xlink:href="#DejaVuSans-48"/>
       <use x="127.246094" xlink:href="#DejaVuSans-48"/>
      </g>
     </g>
    </g>
    <g id="ytick_8">
     <g id="line2d_15">
      <path clip-path="url(#p9291ca3df0)" d="M 54 44.443636 
L 388.8 44.443636 
" style="fill:none;stroke:#ffffff;stroke-linecap:round;"/>
     </g>
     <g id="text_15">
      <!-- 700 -->
      <defs>
       <path d="M 8.203125 72.90625 
L 55.078125 72.90625 
L 55.078125 68.703125 
L 28.609375 0 
L 18.3125 0 
L 43.21875 64.59375 
L 8.203125 64.59375 
z
" id="DejaVuSans-55"/>
      </defs>
      <g style="fill:#262626;" transform="translate(23.50375 48.622777)scale(0.11 -0.11)">
       <use xlink:href="#DejaVuSans-55"/>
       <use x="63.623047" xlink:href="#DejaVuSans-48"/>
       <use x="127.246094" xlink:href="#DejaVuSans-48"/>
      </g>
     </g>
    </g>
    <g id="text_16">
     <!-- Context Length -->
     <defs>
      <path d="M 64.40625 67.28125 
L 64.40625 56.890625 
Q 59.421875 61.53125 53.78125 63.8125 
Q 48.140625 66.109375 41.796875 66.109375 
Q 29.296875 66.109375 22.65625 58.46875 
Q 16.015625 50.828125 16.015625 36.375 
Q 16.015625 21.96875 22.65625 14.328125 
Q 29.296875 6.6875 41.796875 6.6875 
Q 48.140625 6.6875 53.78125 8.984375 
Q 59.421875 11.28125 64.40625 15.921875 
L 64.40625 5.609375 
Q 59.234375 2.09375 53.4375 0.328125 
Q 47.65625 -1.421875 41.21875 -1.421875 
Q 24.65625 -1.421875 15.125 8.703125 
Q 5.609375 18.84375 5.609375 36.375 
Q 5.609375 53.953125 15.125 64.078125 
Q 24.65625 74.21875 41.21875 74.21875 
Q 47.75 74.21875 53.53125 72.484375 
Q 59.328125 70.75 64.40625 67.28125 
z
" id="DejaVuSans-67"/>
      <path d="M 30.609375 48.390625 
Q 23.390625 48.390625 19.1875 42.75 
Q 14.984375 37.109375 14.984375 27.296875 
Q 14.984375 17.484375 19.15625 11.84375 
Q 23.34375 6.203125 30.609375 6.203125 
Q 37.796875 6.203125 41.984375 11.859375 
Q 46.1875 17.53125 46.1875 27.296875 
Q 46.1875 37.015625 41.984375 42.703125 
Q 37.796875 48.390625 30.609375 48.390625 
z
M 30.609375 56 
Q 42.328125 56 49.015625 48.375 
Q 55.71875 40.765625 55.71875 27.296875 
Q 55.71875 13.875 49.015625 6.21875 
Q 42.328125 -1.421875 30.609375 -1.421875 
Q 18.84375 -1.421875 12.171875 6.21875 
Q 5.515625 13.875 5.515625 27.296875 
Q 5.515625 40.765625 12.171875 48.375 
Q 18.84375 56 30.609375 56 
z
" id="DejaVuSans-111"/>
      <path d="M 54.890625 33.015625 
L 54.890625 0 
L 45.90625 0 
L 45.90625 32.71875 
Q 45.90625 40.484375 42.875 44.328125 
Q 39.84375 48.1875 33.796875 48.1875 
Q 26.515625 48.1875 22.3125 43.546875 
Q 18.109375 38.921875 18.109375 30.90625 
L 18.109375 0 
L 9.078125 0 
L 9.078125 54.6875 
L 18.109375 54.6875 
L 18.109375 46.1875 
Q 21.34375 51.125 25.703125 53.5625 
Q 30.078125 56 35.796875 56 
Q 45.21875 56 50.046875 50.171875 
Q 54.890625 44.34375 54.890625 33.015625 
z
" id="DejaVuSans-110"/>
      <path d="M 18.3125 70.21875 
L 18.3125 54.6875 
L 36.8125 54.6875 
L 36.8125 47.703125 
L 18.3125 47.703125 
L 18.3125 18.015625 
Q 18.3125 11.328125 20.140625 9.421875 
Q 21.96875 7.515625 27.59375 7.515625 
L 36.8125 7.515625 
L 36.8125 0 
L 27.59375 0 
Q 17.1875 0 13.234375 3.875 
Q 9.28125 7.765625 9.28125 18.015625 
L 9.28125 47.703125 
L 2.6875 47.703125 
L 2.6875 54.6875 
L 9.28125 54.6875 
L 9.28125 70.21875 
z
" id="DejaVuSans-116"/>
      <path d="M 56.203125 29.59375 
L 56.203125 25.203125 
L 14.890625 25.203125 
Q 15.484375 15.921875 20.484375 11.0625 
Q 25.484375 6.203125 34.421875 6.203125 
Q 39.59375 6.203125 44.453125 7.46875 
Q 49.3125 8.734375 54.109375 11.28125 
L 54.109375 2.78125 
Q 49.265625 0.734375 44.1875 -0.34375 
Q 39.109375 -1.421875 33.890625 -1.421875 
Q 20.796875 -1.421875 13.15625 6.1875 
Q 5.515625 13.8125 5.515625 26.8125 
Q 5.515625 40.234375 12.765625 48.109375 
Q 20.015625 56 32.328125 56 
Q 43.359375 56 49.78125 48.890625 
Q 56.203125 41.796875 56.203125 29.59375 
z
M 47.21875 32.234375 
Q 47.125 39.59375 43.09375 43.984375 
Q 39.0625 48.390625 32.421875 48.390625 
Q 24.90625 48.390625 20.390625 44.140625 
Q 15.875 39.890625 15.1875 32.171875 
z
" id="DejaVuSans-101"/>
      <path d="M 54.890625 54.6875 
L 35.109375 28.078125 
L 55.90625 0 
L 45.3125 0 
L 29.390625 21.484375 
L 13.484375 0 
L 2.875 0 
L 24.125 28.609375 
L 4.6875 54.6875 
L 15.28125 54.6875 
L 29.78125 35.203125 
L 44.28125 54.6875 
z
" id="DejaVuSans-120"/>
      <path id="DejaVuSans-32"/>
      <path d="M 9.8125 72.90625 
L 19.671875 72.90625 
L 19.671875 8.296875 
L 55.171875 8.296875 
L 55.171875 0 
L 9.8125 0 
z
" id="DejaVuSans-76"/>
      <path d="M 45.40625 27.984375 
Q 45.40625 37.75 41.375 43.109375 
Q 37.359375 48.484375 30.078125 48.484375 
Q 22.859375 48.484375 18.828125 43.109375 
Q 14.796875 37.75 14.796875 27.984375 
Q 14.796875 18.265625 18.828125 12.890625 
Q 22.859375 7.515625 30.078125 7.515625 
Q 37.359375 7.515625 41.375 12.890625 
Q 45.40625 18.265625 45.40625 27.984375 
z
M 54.390625 6.78125 
Q 54.390625 -7.171875 48.1875 -13.984375 
Q 42 -20.796875 29.203125 -20.796875 
Q 24.46875 -20.796875 20.265625 -20.09375 
Q 16.0625 -19.390625 12.109375 -17.921875 
L 12.109375 -9.1875 
Q 16.0625 -11.328125 19.921875 -12.34375 
Q 23.78125 -13.375 27.78125 -13.375 
Q 36.625 -13.375 41.015625 -8.765625 
Q 45.40625 -4.15625 45.40625 5.171875 
L 45.40625 9.625 
Q 42.625 4.78125 38.28125 2.390625 
Q 33.9375 0 27.875 0 
Q 17.828125 0 11.671875 7.65625 
Q 5.515625 15.328125 5.515625 27.984375 
Q 5.515625 40.671875 11.671875 48.328125 
Q 17.828125 56 27.875 56 
Q 33.9375 56 38.28125 53.609375 
Q 42.625 51.21875 45.40625 46.390625 
L 45.40625 54.6875 
L 54.390625 54.6875 
z
" id="DejaVuSans-103"/>
      <path d="M 54.890625 33.015625 
L 54.890625 0 
L 45.90625 0 
L 45.90625 32.71875 
Q 45.90625 40.484375 42.875 44.328125 
Q 39.84375 48.1875 33.796875 48.1875 
Q 26.515625 48.1875 22.3125 43.546875 
Q 18.109375 38.921875 18.109375 30.90625 
L 18.109375 0 
L 9.078125 0 
L 9.078125 75.984375 
L 18.109375 75.984375 
L 18.109375 46.1875 
Q 21.34375 51.125 25.703125 53.5625 
Q 30.078125 56 35.796875 56 
Q 45.21875 56 50.046875 50.171875 
Q 54.890625 44.34375 54.890625 33.015625 
z
" id="DejaVuSans-104"/>
     </defs>
     <g style="fill:#262626;" transform="translate(17.008125 189.597187)rotate(-90)scale(0.12 -0.12)">
      <use xlink:href="#DejaVuSans-67"/>
      <use x="69.824219" xlink:href="#DejaVuSans-111"/>
      <use x="131.005859" xlink:href="#DejaVuSans-110"/>
      <use x="194.384766" xlink:href="#DejaVuSans-116"/>
      <use x="233.59375" xlink:href="#DejaVuSans-101"/>
      <use x="295.101562" xlink:href="#DejaVuSans-120"/>
      <use x="354.28125" xlink:href="#DejaVuSans-116"/>
      <use x="393.490234" xlink:href="#DejaVuSans-32"/>
      <use x="425.277344" xlink:href="#DejaVuSans-76"/>
      <use x="480.974609" xlink:href="#DejaVuSans-101"/>
      <use x="542.498047" xlink:href="#DejaVuSans-110"/>
      <use x="605.876953" xlink:href="#DejaVuSans-103"/>
      <use x="669.353516" xlink:href="#DejaVuSans-116"/>
      <use x="708.5625" xlink:href="#DejaVuSans-104"/>
     </g>
    </g>
   </g>
   <g id="line2d_16">
    <path clip-path="url(#p9291ca3df0)" d="M 69.218182 210.347532 
L 69.471186 176.813766 
L 69.72419 230.938442 
L 69.977193 201.522857 
L 70.483201 223.584545 
L 70.736205 218.878052 
L 70.989209 211.818312 
L 71.242213 220.642987 
L 71.495217 209.759221 
L 71.74822 228.879351 
L 72.001224 158.87026 
L 72.254228 209.170909 
L 72.507232 235.056623 
L 72.760236 215.054026 
L 73.01324 213.289091 
L 73.266243 219.172208 
L 73.519247 217.407273 
L 73.772251 179.167013 
L 74.025255 220.054675 
L 74.278259 190.344935 
L 74.531263 233.291688 
L 74.784267 227.114416 
L 75.03727 225.937792 
L 75.290274 223.29039 
L 75.543278 234.174156 
L 76.049286 193.874805 
L 76.30229 233.88 
L 76.555294 237.115714 
L 76.808297 222.113766 
L 77.061301 230.644286 
L 77.314305 234.174156 
L 77.567309 198.287143 
L 77.820313 226.526104 
L 78.073317 231.820909 
L 78.326321 200.934545 
L 78.832328 233.291688 
L 79.085332 227.114416 
L 79.338336 215.054026 
L 79.59134 213.583247 
L 79.844344 203.876104 
L 80.097348 220.642987 
L 80.350351 223.878701 
L 80.603355 211.23 
L 80.856359 229.467662 
L 81.109363 232.703377 
L 81.362367 222.407922 
L 81.615371 203.581948 
L 81.868375 220.348831 
L 82.121378 197.404675 
L 82.374382 198.581299 
L 82.627386 230.055974 
L 82.88039 230.35013 
L 83.133394 224.467013 
L 83.386398 192.698182 
L 83.639401 232.115065 
L 83.892405 234.762468 
L 84.145409 219.172208 
L 84.398413 193.874805 
L 84.651417 230.35013 
L 84.904421 241.528052 
L 85.157425 209.465065 
L 85.410428 240.645584 
L 85.663432 226.82026 
L 85.916436 204.17026 
L 86.16944 235.939091 
L 86.422444 215.936494 
L 86.675448 222.407922 
L 86.928452 218.583896 
L 87.181455 200.64039 
L 87.434459 220.054675 
L 87.687463 217.407273 
L 87.940467 228.585195 
L 88.446475 193.286494 
L 88.699479 217.701429 
L 88.952482 230.35013 
L 89.205486 232.409221 
L 89.45849 173.578052 
L 89.711494 219.172208 
L 89.964498 234.174156 
L 90.217502 225.937792 
L 90.470506 227.114416 
L 90.723509 235.644935 
L 90.976513 218.583896 
L 91.229517 220.642987 
L 91.482521 235.644935 
L 91.735525 191.815714 
L 91.988529 238.880649 
L 92.241533 226.526104 
L 92.494536 238.880649 
L 92.74754 224.761169 
L 93.000544 187.109221 
L 93.253548 240.93974 
L 93.506552 208.288442 
L 93.759556 212.994935 
L 94.01256 200.64039 
L 94.265563 236.233247 
L 94.518567 206.817662 
L 94.771571 208.876753 
L 95.024575 202.405325 
L 95.277579 225.643636 
L 95.530583 228.879351 
L 95.783586 224.761169 
L 96.03659 232.703377 
L 96.289594 227.702727 
L 96.542598 229.467662 
L 96.795602 214.75987 
L 97.048606 222.702078 
L 97.30161 219.172208 
L 97.554613 233.585844 
L 97.807617 238.880649 
L 98.060621 231.526753 
L 98.313625 242.116364 
L 98.566629 232.115065 
L 98.819633 232.703377 
L 99.072637 220.642987 
L 99.32564 235.056623 
L 99.578644 237.704026 
L 99.831648 199.757922 
L 100.084652 230.938442 
L 100.337656 233.585844 
L 100.59066 239.174805 
L 100.843664 241.528052 
L 101.349671 205.346883 
L 101.602675 216.818961 
L 101.855679 200.64039 
L 102.108683 222.702078 
L 102.361687 220.348831 
L 102.614691 213.289091 
L 102.867694 194.757273 
L 103.120698 224.761169 
L 103.373702 205.052727 
L 103.626706 221.81961 
L 103.87971 216.524805 
L 104.132714 213.877403 
L 104.385718 213.583247 
L 104.638721 207.70013 
L 104.891725 185.05013 
L 105.144729 215.936494 
L 105.397733 214.171558 
L 105.650737 207.994286 
L 105.903741 221.525455 
L 106.156745 210.641688 
L 106.409748 223.878701 
L 106.662752 196.816364 
L 106.915756 219.466364 
L 107.16876 218.583896 
L 107.421764 215.642338 
L 107.674768 221.525455 
L 107.927771 217.701429 
L 108.180775 194.463117 
L 108.686783 221.231299 
L 108.939787 221.231299 
L 109.192791 199.16961 
L 109.445795 221.81961 
L 109.698798 200.346234 
L 109.951802 219.466364 
L 110.204806 222.113766 
L 110.45781 216.524805 
L 110.710814 206.229351 
L 110.963818 221.231299 
L 111.216822 215.348182 
L 111.469825 218.28974 
L 111.722829 203.581948 
L 111.975833 220.937143 
L 112.228837 223.29039 
L 112.481841 223.29039 
L 112.734845 224.467013 
L 112.987849 218.878052 
L 113.240852 177.696234 
L 113.493856 223.878701 
L 113.74686 217.701429 
L 113.999864 201.817013 
L 114.252868 195.345584 
L 114.505872 192.404026 
L 114.758876 222.702078 
L 115.011879 221.525455 
L 115.264883 223.584545 
L 115.517887 210.053377 
L 115.770891 222.702078 
L 116.276899 210.641688 
L 116.782906 204.17026 
L 117.03591 213.583247 
L 117.541918 217.407273 
L 117.794922 211.818312 
L 118.047926 193.874805 
L 118.300929 187.697532 
L 118.553933 211.23 
L 118.806937 204.758571 
L 119.059941 221.231299 
L 119.312945 213.289091 
L 119.565949 211.818312 
L 119.818953 205.935195 
L 120.071956 188.874156 
L 120.32496 187.109221 
L 120.577964 222.407922 
L 121.083972 213.583247 
L 121.336976 220.937143 
L 121.58998 218.28974 
L 121.842983 186.520909 
L 122.348991 220.642987 
L 122.601995 168.871558 
L 122.854999 217.701429 
L 123.361007 206.229351 
L 123.61401 192.404026 
L 123.867014 212.406623 
L 124.120018 222.407922 
L 124.373022 210.053377 
L 124.87903 223.878701 
L 125.132034 185.638442 
L 125.385037 190.050779 
L 125.638041 218.583896 
L 126.144049 210.347532 
L 126.397053 216.230649 
L 126.650057 206.523506 
L 126.903061 223.584545 
L 127.409068 207.994286 
L 127.662072 216.524805 
L 127.915076 200.346234 
L 128.16808 218.878052 
L 128.421084 218.583896 
L 128.674088 213.877403 
L 128.927091 223.878701 
L 129.180095 217.995584 
L 129.433099 202.405325 
L 129.686103 200.64039 
L 130.192111 212.406623 
L 130.445114 222.996234 
L 130.698118 203.581948 
L 130.951122 220.937143 
L 131.204126 220.348831 
L 131.45713 191.227403 
L 131.963138 224.172857 
L 132.216141 209.170909 
L 132.469145 216.524805 
L 132.722149 168.283247 
L 132.975153 219.466364 
L 133.228157 211.23 
L 133.481161 219.466364 
L 133.734165 205.935195 
L 133.987168 221.525455 
L 134.240172 205.641039 
L 134.74618 221.231299 
L 134.999184 221.525455 
L 135.252188 201.522857 
L 135.505192 199.757922 
L 135.758195 204.758571 
L 136.011199 197.698831 
L 136.264203 221.81961 
L 136.517207 201.817013 
L 136.770211 216.230649 
L 137.023215 220.937143 
L 137.276219 219.760519 
L 137.529222 210.935844 
L 137.782226 212.994935 
L 138.03523 207.70013 
L 138.288234 200.052078 
L 138.541238 200.346234 
L 138.794242 210.935844 
L 139.047246 202.111169 
L 139.300249 185.932597 
L 139.553253 214.171558 
L 139.806257 219.466364 
L 140.312265 199.16961 
L 140.565269 205.641039 
L 140.818273 216.230649 
L 141.071276 213.583247 
L 141.32428 207.405974 
L 141.577284 217.995584 
L 141.830288 222.113766 
L 142.083292 215.348182 
L 142.336296 216.230649 
L 142.589299 214.465714 
L 142.842303 219.760519 
L 143.095307 219.172208 
L 143.601315 198.287143 
L 143.854319 215.642338 
L 144.107323 209.759221 
L 144.360326 219.760519 
L 144.61333 220.642987 
L 144.866334 219.172208 
L 145.372342 196.522208 
L 145.625346 211.818312 
L 145.87835 214.465714 
L 146.131353 219.760519 
L 146.384357 212.700779 
L 146.637361 213.583247 
L 146.890365 210.347532 
L 147.143369 197.992987 
L 147.396373 218.28974 
L 147.649377 199.16961 
L 147.90238 193.580649 
L 148.155384 219.172208 
L 148.661392 223.584545 
L 148.914396 217.113117 
L 149.1674 220.348831 
L 149.420404 219.466364 
L 149.673407 222.996234 
L 149.926411 220.642987 
L 150.179415 224.172857 
L 150.432419 183.579351 
L 150.685423 212.994935 
L 150.938427 161.223506 
L 151.191431 222.113766 
L 151.444434 213.583247 
L 151.697438 222.407922 
L 151.950442 191.815714 
L 152.203446 215.642338 
L 152.45645 216.818961 
L 152.709454 216.230649 
L 152.962457 212.700779 
L 153.215461 172.107273 
L 153.468465 152.104675 
L 153.721469 178.872857 
L 153.974473 218.583896 
L 154.227477 151.516364 
L 154.480481 178.284545 
L 154.986488 156.811169 
L 155.239492 154.752078 
L 155.492496 95.920909 
L 155.998504 171.224805 
L 156.251508 126.807273 
L 156.504511 186.226753 
L 156.757515 112.393636 
L 157.263523 215.054026 
L 157.516527 215.936494 
L 157.769531 182.402727 
L 158.022535 210.935844 
L 158.275538 188.285844 
L 158.528542 204.17026 
L 158.781546 208.582597 
L 159.03455 201.817013 
L 159.287554 207.70013 
L 159.540558 170.048182 
L 159.793562 180.637792 
L 160.299569 83.566364 
L 160.552573 85.037143 
L 160.805577 120.63 
L 161.058581 130.925455 
L 161.311585 69.152727 
L 161.564589 215.642338 
L 161.817592 130.042987 
L 162.070596 187.109221 
L 162.3236 44.443636 
L 163.082612 214.75987 
L 163.335616 220.937143 
L 163.588619 198.287143 
L 163.841623 214.75987 
L 164.094627 202.111169 
L 164.347631 202.993636 
L 164.600635 214.171558 
L 164.853639 220.054675 
L 165.106642 216.524805 
L 165.359646 218.878052 
L 165.61265 205.935195 
L 165.865654 207.994286 
L 166.118658 219.466364 
L 166.371662 223.29039 
L 166.624666 221.81961 
L 166.877669 226.526104 
L 167.130673 222.996234 
L 167.383677 213.583247 
L 167.636681 209.465065 
L 167.889685 218.878052 
L 168.142689 195.63974 
L 168.395693 189.168312 
L 168.648696 194.463117 
L 168.9017 205.052727 
L 169.154704 199.16961 
L 169.407708 221.525455 
L 169.660712 220.054675 
L 169.913716 214.465714 
L 170.16672 219.760519 
L 170.419723 183.579351 
L 170.672727 177.99039 
L 170.925731 220.937143 
L 171.178735 209.465065 
L 171.431739 219.466364 
L 171.684743 149.751429 
L 171.937747 219.466364 
L 172.19075 217.701429 
L 172.443754 198.581299 
L 172.696758 207.994286 
L 172.949762 202.699481 
L 173.202766 220.937143 
L 173.45577 215.642338 
L 173.708774 217.113117 
L 173.961777 221.525455 
L 174.214781 166.812468 
L 174.467785 186.520909 
L 174.720789 189.168312 
L 174.973793 187.697532 
L 175.226797 222.407922 
L 175.4798 174.460519 
L 175.732804 177.402078 
L 175.985808 207.70013 
L 176.238812 223.584545 
L 176.491816 217.701429 
L 176.74482 222.702078 
L 176.997824 219.760519 
L 177.250827 215.348182 
L 177.503831 221.231299 
L 177.756835 207.111818 
L 178.009839 221.525455 
L 178.262843 193.286494 
L 178.768851 220.937143 
L 179.021854 223.878701 
L 179.274858 169.165714 
L 179.527862 218.583896 
L 179.780866 202.699481 
L 180.286874 148.280649 
L 180.539878 222.113766 
L 180.792881 160.341039 
L 181.045885 190.050779 
L 181.298889 194.757273 
L 181.551893 208.582597 
L 181.804897 214.171558 
L 182.057901 215.348182 
L 182.310905 221.525455 
L 182.563908 210.347532 
L 182.816912 223.584545 
L 183.069916 206.229351 
L 183.32292 223.29039 
L 183.575924 222.407922 
L 183.828928 215.348182 
L 184.081932 217.701429 
L 184.334935 189.168312 
L 184.587939 201.228701 
L 184.840943 75.624156 
L 185.093947 213.877403 
L 185.346951 226.231948 
L 185.599955 226.82026 
L 186.105962 212.112468 
L 186.358966 181.226104 
L 186.61197 213.583247 
L 186.864974 204.17026 
L 187.370982 221.231299 
L 187.623985 216.230649 
L 187.876989 223.584545 
L 188.129993 217.701429 
L 188.382997 216.818961 
L 188.636001 206.523506 
L 188.889005 212.406623 
L 189.142009 193.874805 
L 189.395012 217.113117 
L 189.648016 215.642338 
L 189.90102 205.052727 
L 190.154024 219.760519 
L 190.407028 209.465065 
L 190.660032 185.344286 
L 190.913036 222.407922 
L 191.166039 197.992987 
L 191.419043 207.111818 
L 191.672047 185.638442 
L 191.925051 221.525455 
L 192.178055 215.936494 
L 192.431059 222.996234 
L 192.684063 185.344286 
L 192.937066 165.635844 
L 193.19007 171.813117 
L 193.443074 212.112468 
L 193.949082 192.404026 
L 194.202086 211.524156 
L 194.45509 213.583247 
L 194.708093 196.522208 
L 194.961097 210.347532 
L 195.214101 198.875455 
L 195.467105 203.287792 
L 195.720109 204.464416 
L 195.973113 221.525455 
L 196.47912 211.23 
L 196.732124 220.348831 
L 196.985128 205.641039 
L 197.238132 175.342987 
L 197.491136 208.876753 
L 197.997144 183.579351 
L 198.250147 218.583896 
L 198.503151 213.289091 
L 198.756155 226.526104 
L 199.009159 225.937792 
L 199.262163 208.288442 
L 199.515167 218.878052 
L 199.76817 221.81961 
L 200.021174 192.992338 
L 200.274178 219.466364 
L 200.527182 212.406623 
L 200.780186 223.29039 
L 201.03319 192.10987 
L 201.286194 225.349481 
L 201.539197 208.876753 
L 201.792201 220.642987 
L 202.045205 211.23 
L 202.298209 139.75013 
L 202.551213 216.818961 
L 202.804217 223.29039 
L 203.310224 204.17026 
L 203.563228 225.055325 
L 203.816232 221.525455 
L 204.069236 221.525455 
L 204.32224 214.171558 
L 204.575244 214.75987 
L 204.828248 219.760519 
L 205.081251 205.935195 
L 205.334255 224.172857 
L 205.587259 223.584545 
L 205.840263 212.700779 
L 206.346271 220.937143 
L 206.599275 218.878052 
L 206.852278 218.878052 
L 207.105282 178.872857 
L 207.358286 205.935195 
L 207.864294 216.818961 
L 208.117298 208.582597 
L 208.370302 223.584545 
L 208.623305 221.525455 
L 208.876309 222.702078 
L 209.129313 174.460519 
L 209.382317 226.231948 
L 209.635321 190.639091 
L 209.888325 206.817662 
L 210.141328 193.874805 
L 210.394332 195.933896 
L 210.647336 187.109221 
L 210.90034 218.878052 
L 211.153344 215.936494 
L 211.406348 165.341688 
L 211.659352 210.935844 
L 211.912355 175.048831 
L 212.165359 202.111169 
L 212.418363 211.23 
L 212.671367 210.641688 
L 212.924371 207.70013 
L 213.177375 193.286494 
L 213.430379 201.522857 
L 213.683382 177.99039 
L 214.18939 225.349481 
L 214.442394 218.28974 
L 214.695398 224.761169 
L 214.948402 208.582597 
L 215.201406 222.407922 
L 215.454409 212.700779 
L 215.707413 215.348182 
L 216.213421 197.698831 
L 216.466425 206.523506 
L 216.719429 226.526104 
L 216.972433 211.818312 
L 217.225436 207.994286 
L 217.731444 206.229351 
L 217.984448 220.642987 
L 218.237452 220.054675 
L 218.490456 214.171558 
L 218.74346 216.818961 
L 218.996463 214.171558 
L 219.249467 204.464416 
L 219.502471 215.054026 
L 219.755475 216.524805 
L 220.008479 224.172857 
L 220.261483 206.523506 
L 220.514487 218.28974 
L 221.020494 203.581948 
L 221.273498 214.171558 
L 221.526502 195.933896 
L 221.779506 225.937792 
L 222.03251 198.581299 
L 222.285513 200.64039 
L 222.538517 198.875455 
L 222.791521 217.113117 
L 223.297529 196.228052 
L 223.803537 205.935195 
L 224.05654 225.643636 
L 224.309544 224.172857 
L 224.562548 205.052727 
L 224.815552 219.172208 
L 225.068556 198.581299 
L 225.32156 214.465714 
L 225.574564 221.525455 
L 225.827567 218.28974 
L 226.080571 218.28974 
L 226.333575 196.522208 
L 226.586579 213.583247 
L 226.839583 219.172208 
L 227.092587 217.995584 
L 227.345591 219.466364 
L 227.598594 212.112468 
L 227.851598 184.461818 
L 228.104602 221.81961 
L 228.357606 218.583896 
L 228.61061 221.231299 
L 228.863614 195.345584 
L 229.116618 217.995584 
L 229.369621 205.346883 
L 229.622625 215.348182 
L 229.875629 186.520909 
L 230.128633 221.525455 
L 230.381637 225.349481 
L 230.887645 185.344286 
L 231.140648 205.052727 
L 231.393652 200.052078 
L 231.646656 201.522857 
L 231.89966 189.756623 
L 232.152664 224.761169 
L 232.405668 184.755974 
L 232.658672 208.876753 
L 232.911675 216.524805 
L 233.164679 192.10987 
L 233.417683 186.520909 
L 233.670687 208.582597 
L 233.923691 217.113117 
L 234.176695 199.757922 
L 234.429698 212.994935 
L 234.682702 207.70013 
L 235.18871 186.226753 
L 235.441714 204.464416 
L 235.694718 212.994935 
L 235.947722 185.05013 
L 236.200725 220.348831 
L 236.453729 205.052727 
L 236.706733 222.996234 
L 236.959737 203.876104 
L 237.212741 203.581948 
L 237.465745 209.170909 
L 237.718749 220.054675 
L 237.971752 220.054675 
L 238.224756 217.113117 
L 238.47776 162.988442 
L 238.730764 221.231299 
L 238.983768 197.992987 
L 239.236772 127.101429 
L 239.489776 219.466364 
L 239.742779 224.172857 
L 239.995783 216.818961 
L 240.248787 181.814416 
L 240.501791 183.285195 
L 240.754795 214.171558 
L 241.007799 209.465065 
L 241.260803 212.406623 
L 241.513806 219.760519 
L 241.76681 196.522208 
L 242.019814 201.817013 
L 242.272818 220.348831 
L 242.525822 180.343636 
L 243.03183 224.467013 
L 243.284833 197.404675 
L 243.537837 207.405974 
L 243.790841 205.641039 
L 244.043845 222.996234 
L 244.549853 209.759221 
L 244.802856 209.759221 
L 245.05586 220.054675 
L 245.561868 190.639091 
L 245.814872 198.287143 
L 246.067876 215.348182 
L 246.32088 207.405974 
L 246.573883 221.231299 
L 247.079891 199.16961 
L 247.332895 217.701429 
L 247.585899 220.937143 
L 247.838903 201.522857 
L 248.091907 202.993636 
L 248.34491 221.525455 
L 248.597914 212.112468 
L 248.850918 216.818961 
L 249.103922 182.696883 
L 249.356926 218.878052 
L 249.60993 203.581948 
L 249.862934 219.172208 
L 250.115937 200.934545 
L 250.368941 211.23 
L 250.621945 201.228701 
L 250.874949 215.348182 
L 251.127953 196.816364 
L 251.380957 160.635195 
L 251.633961 209.170909 
L 251.886964 217.701429 
L 252.139968 209.759221 
L 252.392972 185.05013 
L 252.645976 209.170909 
L 252.89898 183.579351 
L 253.151984 216.818961 
L 253.404988 205.052727 
L 253.657991 225.055325 
L 253.910995 222.113766 
L 254.417003 193.286494 
L 254.670007 195.933896 
L 254.923011 200.052078 
L 255.176015 198.875455 
L 255.429018 149.163117 
L 255.682022 198.875455 
L 255.935026 210.053377 
L 256.18803 206.523506 
L 256.441034 217.407273 
L 256.694038 222.996234 
L 256.947041 207.111818 
L 257.200045 221.81961 
L 257.453049 216.818961 
L 257.959057 222.407922 
L 258.212061 206.817662 
L 258.465065 212.112468 
L 258.718068 226.526104 
L 258.971072 220.348831 
L 259.224076 219.466364 
L 259.47708 213.583247 
L 259.730084 195.933896 
L 259.983088 210.641688 
L 260.236092 171.224805 
L 260.489095 199.757922 
L 260.742099 208.876753 
L 260.995103 177.402078 
L 261.501111 210.641688 
L 261.754115 214.75987 
L 262.007119 194.463117 
L 262.260122 206.523506 
L 262.513126 196.816364 
L 262.76613 206.523506 
L 263.019134 162.40013 
L 263.525142 211.524156 
L 263.778146 207.994286 
L 264.031149 183.873506 
L 264.284153 208.876753 
L 264.537157 187.403377 
L 264.790161 217.407273 
L 265.043165 185.344286 
L 265.296169 192.698182 
L 265.549173 212.112468 
L 265.802176 200.052078 
L 266.05518 193.874805 
L 266.561188 159.164416 
L 266.814192 210.053377 
L 267.067196 204.758571 
L 267.3202 205.346883 
L 267.573203 140.044286 
L 268.079211 220.348831 
L 268.332215 208.582597 
L 268.585219 220.054675 
L 268.838223 204.17026 
L 269.091226 216.818961 
L 269.34423 210.935844 
L 269.597234 218.583896 
L 269.850238 171.224805 
L 270.103242 185.638442 
L 270.356246 192.10987 
L 270.60925 218.583896 
L 270.862253 219.172208 
L 271.115257 221.81961 
L 271.368261 221.525455 
L 271.621265 215.936494 
L 271.874269 215.054026 
L 272.127273 192.404026 
L 272.63328 224.467013 
L 272.886284 214.465714 
L 273.139288 211.524156 
L 273.392292 226.231948 
L 273.645296 205.346883 
L 273.8983 204.464416 
L 274.404307 208.288442 
L 274.657311 224.467013 
L 274.910315 219.466364 
L 275.163319 190.639091 
L 275.416323 217.113117 
L 275.922331 185.344286 
L 276.175334 184.461818 
L 276.934346 221.525455 
L 277.18735 203.581948 
L 277.440354 225.349481 
L 277.693358 218.583896 
L 277.946361 216.230649 
L 278.199365 217.701429 
L 278.452369 213.289091 
L 278.705373 222.996234 
L 278.958377 209.759221 
L 279.464384 217.995584 
L 279.717388 213.877403 
L 280.223396 211.818312 
L 280.4764 208.288442 
L 280.729404 223.878701 
L 281.235411 205.641039 
L 281.488415 207.994286 
L 281.741419 223.878701 
L 281.994423 188.58 
L 282.247427 191.815714 
L 282.753435 202.405325 
L 283.006438 185.344286 
L 283.259442 182.696883 
L 283.512446 202.993636 
L 283.76545 204.17026 
L 284.018454 195.345584 
L 284.271458 221.231299 
L 284.524462 215.642338 
L 284.777465 215.642338 
L 285.283473 219.760519 
L 285.536477 205.641039 
L 285.789481 182.696883 
L 286.042485 218.28974 
L 286.295489 223.584545 
L 286.548492 220.054675 
L 286.801496 221.525455 
L 287.0545 216.524805 
L 287.307504 181.52026 
L 287.560508 167.989091 
L 287.813512 195.933896 
L 288.319519 219.760519 
L 288.572523 214.465714 
L 288.825527 220.348831 
L 289.078531 215.054026 
L 289.331535 200.052078 
L 289.837543 218.28974 
L 290.090546 202.699481 
L 290.34355 208.582597 
L 290.596554 219.466364 
L 290.849558 212.406623 
L 291.102562 213.877403 
L 291.608569 198.581299 
L 291.861573 211.524156 
L 292.114577 207.405974 
L 292.367581 192.992338 
L 292.620585 187.109221 
L 292.873589 198.581299 
L 293.126593 217.701429 
L 293.379596 202.993636 
L 293.6326 217.995584 
L 293.885604 205.346883 
L 294.138608 217.701429 
L 294.644616 195.63974 
L 295.150623 213.583247 
L 295.403627 207.994286 
L 295.656631 215.348182 
L 295.909635 195.63974 
L 296.415643 209.465065 
L 296.668647 209.170909 
L 296.92165 211.818312 
L 297.174654 216.818961 
L 297.427658 213.583247 
L 297.680662 218.878052 
L 297.933666 210.053377 
L 298.18667 195.051429 
L 298.439674 215.054026 
L 298.692677 210.935844 
L 299.198685 217.407273 
L 299.451689 215.936494 
L 299.704693 203.287792 
L 299.957697 209.465065 
L 300.210701 211.23 
L 300.463704 221.81961 
L 300.716708 213.289091 
L 300.969712 217.995584 
L 301.222716 199.463766 
L 301.47572 223.29039 
L 301.728724 205.052727 
L 301.981727 208.288442 
L 302.234731 221.525455 
L 302.487735 199.16961 
L 302.740739 221.525455 
L 302.993743 180.049481 
L 303.246747 215.936494 
L 303.499751 215.348182 
L 303.752754 220.348831 
L 304.005758 196.816364 
L 304.258762 217.407273 
L 304.511766 215.054026 
L 304.76477 195.051429 
L 305.017774 213.583247 
L 305.523781 219.172208 
L 305.776785 218.878052 
L 306.029789 217.701429 
L 306.282793 196.228052 
L 306.535797 211.524156 
L 306.788801 204.464416 
L 307.041805 204.464416 
L 307.547812 218.878052 
L 307.800816 202.111169 
L 308.05382 202.993636 
L 308.306824 210.935844 
L 308.559828 200.934545 
L 308.812832 223.29039 
L 309.318839 200.052078 
L 309.571843 217.995584 
L 309.824847 216.524805 
L 310.077851 219.172208 
L 310.330855 211.524156 
L 310.583859 218.583896 
L 310.836862 218.878052 
L 311.089866 199.16961 
L 311.34287 206.523506 
L 311.595874 192.404026 
L 312.101882 211.524156 
L 312.354886 216.230649 
L 312.607889 200.346234 
L 312.860893 198.581299 
L 313.113897 202.699481 
L 313.366901 215.936494 
L 313.872909 221.525455 
L 314.125912 221.81961 
L 314.378916 221.231299 
L 314.63192 196.816364 
L 314.884924 208.582597 
L 315.137928 213.289091 
L 315.390932 221.231299 
L 315.643936 205.641039 
L 315.896939 217.113117 
L 316.149943 210.935844 
L 316.402947 187.403377 
L 316.655951 190.344935 
L 316.908955 222.702078 
L 317.161959 198.581299 
L 317.414963 185.638442 
L 317.667966 216.818961 
L 317.92097 203.876104 
L 318.173974 221.81961 
L 318.426978 223.29039 
L 318.679982 216.818961 
L 318.932986 206.523506 
L 319.18599 212.700779 
L 319.438993 195.933896 
L 319.691997 218.583896 
L 319.945001 212.700779 
L 320.198005 220.937143 
L 320.451009 204.464416 
L 320.704013 210.347532 
L 320.957017 224.761169 
L 321.21002 207.405974 
L 321.463024 212.406623 
L 321.716028 212.700779 
L 321.969032 220.348831 
L 322.222036 220.348831 
L 322.47504 226.231948 
L 322.728044 214.75987 
L 322.981047 222.702078 
L 323.234051 217.113117 
L 323.487055 218.878052 
L 323.740059 218.583896 
L 323.993063 217.995584 
L 324.246067 208.582597 
L 324.499071 222.996234 
L 324.752074 224.467013 
L 325.258082 196.522208 
L 325.511086 221.525455 
L 325.76409 225.055325 
L 326.270097 204.464416 
L 326.523101 219.466364 
L 326.776105 221.525455 
L 327.029109 190.639091 
L 327.282113 204.17026 
L 327.535117 192.404026 
L 327.788121 221.231299 
L 328.041124 218.583896 
L 328.294128 214.465714 
L 328.547132 215.054026 
L 328.800136 208.288442 
L 329.05314 216.230649 
L 329.306144 198.875455 
L 329.559148 155.634545 
L 329.812151 188.285844 
L 330.065155 177.402078 
L 330.571163 224.172857 
L 330.824167 220.348831 
L 331.077171 220.642987 
L 331.330175 187.697532 
L 331.583178 222.407922 
L 332.089186 193.286494 
L 332.34219 216.818961 
L 332.595194 204.758571 
L 332.848198 205.935195 
L 333.101202 221.81961 
L 333.354205 151.516364 
L 333.607209 203.581948 
L 333.860213 217.995584 
L 334.113217 217.113117 
L 334.366221 222.702078 
L 334.619225 214.465714 
L 334.872229 216.524805 
L 335.125232 212.406623 
L 335.63124 193.874805 
L 335.884244 223.878701 
L 336.137248 191.227403 
L 336.390252 207.405974 
L 336.643255 154.163766 
L 336.896259 200.934545 
L 337.149263 215.936494 
L 337.402267 183.873506 
L 337.655271 213.583247 
L 337.908275 174.166364 
L 338.161279 218.28974 
L 338.414282 214.465714 
L 338.667286 215.936494 
L 339.173294 162.40013 
L 339.426298 202.111169 
L 339.679302 200.64039 
L 339.932306 210.641688 
L 340.185309 207.405974 
L 340.438313 223.878701 
L 340.944321 203.876104 
L 341.197325 206.817662 
L 341.703333 219.760519 
L 341.956336 187.697532 
L 342.20934 202.111169 
L 342.462344 202.111169 
L 342.715348 218.878052 
L 342.968352 200.346234 
L 343.221356 195.63974 
L 343.47436 213.583247 
L 343.727363 212.994935 
L 343.980367 155.634545 
L 344.233371 201.817013 
L 344.486375 201.817013 
L 344.739379 214.75987 
L 344.992383 209.465065 
L 345.245387 199.16961 
L 345.49839 213.877403 
L 345.751394 179.167013 
L 346.004398 220.348831 
L 346.257402 209.170909 
L 346.510406 179.461169 
L 346.76341 216.230649 
L 347.016414 205.641039 
L 347.269417 206.523506 
L 347.522421 217.407273 
L 347.775425 218.878052 
L 348.028429 217.113117 
L 348.534437 220.348831 
L 348.78744 205.935195 
L 349.040444 218.878052 
L 349.293448 222.407922 
L 349.546452 223.878701 
L 349.799456 218.583896 
L 350.05246 216.230649 
L 350.305464 212.700779 
L 350.558467 221.525455 
L 350.811471 211.23 
L 351.064475 212.994935 
L 351.317479 221.81961 
L 351.570483 192.10987 
L 352.076491 218.583896 
L 352.329494 203.287792 
L 352.582498 219.172208 
L 352.835502 217.407273 
L 353.088506 212.700779 
L 353.34151 216.524805 
L 353.594514 185.932597 
L 353.847518 223.584545 
L 354.100521 210.935844 
L 354.353525 217.701429 
L 354.859533 197.110519 
L 355.112537 214.465714 
L 355.618545 186.226753 
L 356.124552 215.936494 
L 356.63056 219.760519 
L 356.883564 198.581299 
L 357.136568 212.112468 
L 357.389572 217.701429 
L 357.642575 217.995584 
L 357.895579 213.289091 
L 358.148583 195.345584 
L 358.401587 196.816364 
L 358.654591 217.407273 
L 358.907595 214.171558 
L 359.160599 204.758571 
L 359.413602 210.935844 
L 359.666606 208.288442 
L 359.91961 203.287792 
L 360.172614 194.463117 
L 360.678622 221.231299 
L 360.931625 213.583247 
L 361.184629 219.466364 
L 361.437633 219.760519 
L 361.690637 176.225455 
L 361.943641 207.70013 
L 362.196645 201.817013 
L 362.702652 200.64039 
L 362.955656 218.28974 
L 363.20866 178.872857 
L 363.461664 220.054675 
L 363.714668 186.815065 
L 363.967672 185.344286 
L 364.220676 190.050779 
L 364.473679 212.112468 
L 364.726683 211.23 
L 365.232691 226.82026 
L 365.485695 182.696883 
L 365.738699 200.346234 
L 365.991703 188.58 
L 366.244706 223.878701 
L 366.49771 207.405974 
L 366.750714 176.813766 
L 367.003718 219.760519 
L 367.256722 216.230649 
L 367.509726 195.345584 
L 367.76273 157.105325 
L 368.015733 202.699481 
L 368.268737 173.283896 
L 368.774745 220.937143 
L 369.027749 207.994286 
L 369.280753 217.113117 
L 369.533757 186.520909 
L 369.78676 221.525455 
L 370.039764 211.818312 
L 370.292768 220.348831 
L 370.545772 210.347532 
L 370.798776 219.466364 
L 371.05178 213.289091 
L 371.304783 218.583896 
L 371.557787 190.933247 
L 371.810791 217.407273 
L 372.063795 226.231948 
L 372.316799 224.172857 
L 372.569803 201.228701 
L 372.822807 216.818961 
L 373.07581 214.465714 
L 373.328814 228.585195 
L 373.581818 206.523506 
L 373.581818 206.523506 
" style="fill:none;stroke:#4c72b0;stroke-linecap:round;stroke-width:1.5;"/>
   </g>
   <g id="patch_3">
    <path d="M 54 252 
L 54 34.56 
" style="fill:none;stroke:#ffffff;stroke-linecap:square;stroke-linejoin:miter;stroke-width:1.25;"/>
   </g>
   <g id="patch_4">
    <path d="M 388.8 252 
L 388.8 34.56 
" style="fill:none;stroke:#ffffff;stroke-linecap:square;stroke-linejoin:miter;stroke-width:1.25;"/>
   </g>
   <g id="patch_5">
    <path d="M 54 252 
L 388.8 252 
" style="fill:none;stroke:#ffffff;stroke-linecap:square;stroke-linejoin:miter;stroke-width:1.25;"/>
   </g>
   <g id="patch_6">
    <path d="M 54 34.56 
L 388.8 34.56 
" style="fill:none;stroke:#ffffff;stroke-linecap:square;stroke-linejoin:miter;stroke-width:1.25;"/>
   </g>
  </g>
 </g>
 <defs>
  <clipPath id="p9291ca3df0">
   <rect height="217.44" width="334.8" x="54" y="34.56"/>
  </clipPath>
 </defs>
</svg>
